Normalized EMG Linear Envelopes
nRows=135
nColumns=4

endheader
time	 med_gas_r	  soleus_r	 tib_ant_r	
2.625	  0.002968	  0.014529	  0.002417	
2.6875	  0.002512	  0.014970	  0.001957	
2.75	  0.002181	  0.015282	  0.001572	
2.8125	  0.002050	  0.015461	  0.001311	
2.875	  0.002100	  0.015576	  0.001182	
2.9375	  0.002239	  0.015599	  0.001162	
3	  0.002386	  0.015428	  0.001221	
3.0625	  0.002498	  0.015089	  0.001314	
3.125	  0.002572	  0.014735	  0.001402	
3.1875	  0.002620	  0.014482	  0.001455	
3.25	  0.002634	  0.014355	  0.001464	
3.3125	  0.002586	  0.014305	  0.001440	
3.375	  0.002485	  0.014183	  0.001416	
3.4375	  0.002387	  0.013859	  0.001407	
3.5	  0.002343	  0.013407	  0.001396	
3.5625	  0.002333	  0.013043	  0.001363	
3.625	  0.002303	  0.012917	  0.001312	
3.6875	  0.002226	  0.013046	  0.001258	
3.75	  0.002129	  0.013318	  0.001224	
3.8125	  0.002088	  0.013477	  0.001221	
3.875	  0.002263	  0.013322	  0.001247	
3.9375	  0.002957	  0.012978	  0.001286	
4	  0.004617	  0.012720	  0.001324	
4.0625	  0.007473	  0.012617	  0.001353	
4.125	  0.011148	  0.012721	  0.001362	
4.1875	  0.015568	  0.014026	  0.001360	
4.25	  0.023037	  0.019570	  0.001461	
4.3125	  0.038228	  0.033769	  0.001908	
4.375	  0.063805	  0.058800	  0.002923	
4.4375	  0.096305	  0.091222	  0.004551	
4.5	  0.129528	  0.124181	  0.006663	
4.5625	  0.161595	  0.154192	  0.008992	
4.625	  0.194950	  0.183679	  0.011138	
4.6875	  0.230350	  0.215035	  0.012693	
4.75	  0.263663	  0.245948	  0.013515	
4.8125	  0.289054	  0.273680	  0.013939	
4.875	  0.305807	  0.299619	  0.014643	
4.9375	  0.319674	  0.326907	  0.016171	
5	  0.335435	  0.356082	  0.018690	
5.0625	  0.352610	  0.383412	  0.022109	
5.125	  0.370305	  0.403932	  0.026039	
5.1875	  0.390762	  0.416933	  0.029659	
5.25	  0.414898	  0.425419	  0.032091	
5.3125	  0.437299	  0.431286	  0.033093	
5.375	  0.450040	  0.435979	  0.033181	
5.4375	  0.451989	  0.444055	  0.033106	
5.5	  0.450073	  0.461077	  0.033503	
5.5625	  0.449080	  0.485043	  0.034998	
5.625	  0.445947	  0.502670	  0.037994	
5.6875	  0.437908	  0.502689	  0.042003	
5.75	  0.429763	  0.490056	  0.045677	
5.8125	  0.430855	  0.477504	  0.047835	
5.875	  0.450677	  0.470013	  0.048483	
5.9375	  0.492752	  0.466805	  0.048913	
6	  0.546182	  0.471310	  0.050656	
6.0625	  0.591800	  0.490152	  0.054190	
6.125	  0.617570	  0.522105	  0.058637	
6.1875	  0.618462	  0.552019	  0.062548	
6.25	  0.592075	  0.559617	  0.064775	
6.3125	  0.547303	  0.536152	  0.064702	
6.375	  0.506791	  0.493033	  0.062400	
6.4375	  0.491457	  0.452385	  0.059031	
6.5	  0.504830	  0.427659	  0.056314	
6.5625	  0.533210	  0.417492	  0.055177	
6.625	  0.559087	  0.417573	  0.055462	
6.6875	  0.573968	  0.428017	  0.056837	
6.75	  0.580441	  0.445866	  0.059099	
6.8125	  0.584141	  0.458784	  0.061323	
6.875	  0.586444	  0.453999	  0.061781	
6.9375	  0.587277	  0.432960	  0.059666	
7	  0.589903	  0.411056	  0.056347	
7.0625	  0.595872	  0.402214	  0.054141	
7.125	  0.597833	  0.408198	  0.054259	
7.1875	  0.584822	  0.420725	  0.056082	
7.25	  0.553527	  0.429041	  0.057834	
7.3125	  0.510521	  0.427497	  0.057821	
7.375	  0.469383	  0.419058	  0.055523	
7.4375	  0.445311	  0.411645	  0.051692	
7.5	  0.442343	  0.411034	  0.047470	
7.5625	  0.449286	  0.415627	  0.043709	
7.625	  0.454471	  0.417627	  0.040973	
7.6875	  0.456283	  0.410615	  0.039447	
7.75	  0.457469	  0.394057	  0.038778	
7.8125	  0.458271	  0.371561	  0.038376	
7.875	  0.456425	  0.348758	  0.037827	
7.9375	  0.450197	  0.331562	  0.037184	
8	  0.439565	  0.324204	  0.037015	
8.0625	  0.425109	  0.326768	  0.037764	
8.125	  0.410108	  0.333655	  0.039150	
8.1875	  0.401557	  0.338269	  0.040459	
8.25	  0.402618	  0.337480	  0.041167	
8.3125	  0.407807	  0.328899	  0.041288	
8.375	  0.410308	  0.312073	  0.041462	
8.4375	  0.409276	  0.293979	  0.042506	
8.5	  0.407252	  0.284169	  0.044500	
8.5625	  0.405873	  0.285137	  0.046511	
8.625	  0.409155	  0.293426	  0.047874	
8.6875	  0.425855	  0.307115	  0.049210	
8.75	  0.458895	  0.327254	  0.051199	
8.8125	  0.495307	  0.351016	  0.052891	
8.875	  0.515495	  0.365427	  0.052346	
8.9375	  0.508112	  0.353094	  0.049289	
9	  0.470567	  0.306746	  0.046913	
9.0625	  0.406091	  0.236169	  0.050742	
9.125	  0.327235	  0.161222	  0.064259	
9.1875	  0.250086	  0.099982	  0.083311	
9.25	  0.180504	  0.060968	  0.096076	
9.3125	  0.116526	  0.042120	  0.092644	
9.375	  0.061560	  0.035681	  0.074890	
9.4375	  0.023486	  0.034399	  0.054381	
9.5	  0.004260	  0.034168	  0.040879	
9.5625	 -0.001641	  0.033280	  0.035394	
9.625	 -0.001226	  0.031288	  0.033640	
9.6875	  0.000872	  0.028668	  0.031827	
9.75	  0.002590	  0.026461	  0.028338	
9.8125	  0.003461	  0.025447	  0.023254	
9.875	  0.003686	  0.025676	  0.017814	
9.9375	  0.003568	  0.026868	  0.013477	
10	  0.003319	  0.028704	  0.010869	
10.0625	  0.003046	  0.030349	  0.009509	
10.125	  0.002787	  0.030525	  0.008446	
10.1875	  0.002561	  0.028726	  0.007081	
10.25	  0.002390	  0.025875	  0.005519	
10.3125	  0.002314	  0.023402	  0.004219	
10.375	  0.002366	  0.022070	  0.003416	
10.4375	  0.002509	  0.021704	  0.003007	
10.5	  0.002655	  0.021730	  0.002780	
10.5625	  0.002729	  0.021843	  0.002577	
10.625	  0.002717	  0.022144	  0.002349	
10.6875	  0.002643	  0.022704	  0.002112	
10.75	  0.002566	  0.023178	  0.001904	
10.8125	  0.002555	  0.023013	  0.001785	
10.875	  0.002641	  0.021966	  0.001796	
10.9375	  0.002798	  0.020247	  0.001928	
11	  0.002985	  0.018226	  0.002127	
